<svg width="30" height="30" viewBox="0 0 30 30" fill="none" xmlns="http://www.w3.org/2000/svg">
<path opacity="0.1" d="M14.9999 0.736816C6.71554 0.736816 -0.000244141 7.13275 -0.000244141 15.0225C-0.000244141 22.9123 6.71554 29.3082 14.9999 29.3082C23.2842 29.3082 30 22.9123 30 15.0225C29.9904 7.13656 23.2802 0.746001 14.9999 0.736816Z" fill="white"/>
<path d="M23.6586 10.4987L15.1023 21.557C14.8982 21.8149 14.5939 21.9838 14.2578 22.0259C13.9216 22.068 13.5818 21.9797 13.3147 21.7809L7.20469 17.1285C6.66551 16.7175 6.57821 15.9682 7.00968 15.4547C7.44116 14.9412 8.22803 14.858 8.7672 15.2689L13.8622 19.1511L21.6461 9.09038C21.9013 8.7256 22.3464 8.52393 22.8046 8.56542C23.2628 8.60691 23.66 8.88486 23.8385 9.28891C24.0169 9.69296 23.9478 10.1577 23.6586 10.4987Z" fill="white"/>
</svg>
