<svg width="30" height="30" viewBox="0 0 30 30" fill="none" xmlns="http://www.w3.org/2000/svg">
<g id="check-circle-1">
<path id="Shape" d="M14.9776 0.959717C7.1914 0.959717 0.879425 7.27169 0.879425 15.0579C0.879425 22.8441 7.1914 29.1561 14.9776 29.1561C22.7638 29.1561 29.0758 22.8441 29.0758 15.0579C29.0667 7.27545 22.7601 0.96878 14.9776 0.959717Z" fill="#5243C2" fill-opacity="0.15"/>
<path id="Path" d="M23.1157 10.5936L15.0738 21.5068C14.8821 21.7613 14.5961 21.928 14.2801 21.9695C13.9642 22.011 13.6448 21.9239 13.3938 21.7277L7.65115 17.1364C7.14439 16.7308 7.06234 15.9913 7.46787 15.4845C7.8734 14.9778 8.61295 14.8957 9.11971 15.3012L13.9084 19.1324L21.2242 9.20377C21.4641 8.84379 21.8824 8.64476 22.313 8.68571C22.7437 8.72666 23.117 9.00096 23.2847 9.39971C23.4525 9.79845 23.3875 10.2571 23.1157 10.5936Z" fill="#BB6BD9"/>
</g>
</svg>
